<?xml version="1.0" encoding="utf-8"?>
<!-- Generator: Adobe Illustrator 22.1.0, SVG Export Plug-In . SVG Version: 6.00 Build 0)  -->
<svg version="1.1" id="Layer_1" xmlns="http://www.w3.org/2000/svg" xmlns:xlink="http://www.w3.org/1999/xlink" x="0px" y="0px"
	 viewBox="0 0 1500 1500" style="enable-background:new 0 0 1500 1500;" xml:space="preserve">
<style type="text/css">
	.st0{fill:#16579D;}
	.st1{fill:#FBAD18;}
</style>
<g>
	<path class="st0" d="M1015.5,388.6c-104.8,0-199.4,44.9-265.5,116.4c-66.1-71.5-160.6-116.4-265.5-116.4
		c-199.3,0-361.4,162.1-361.4,361.4c0,199.3,162.1,361.4,361.4,361.4c104.8,0,199.4-44.9,265.5-116.4
		c66.1,71.5,160.6,116.4,265.5,116.4c199.3,0,361.4-162.1,361.4-361.4C1376.9,550.7,1214.7,388.6,1015.5,388.6z M1015.5,1065.4
		c-93.9,0-178.3-41.2-236.1-106.5c7.8-11,15.1-22.6,21.7-34.5l14.4,9.3l0.3-5.3l1.9-38.2l1.8-35.3l-47.2,24.2l-11.1,5.7l-9.8,5
		l-2.1,1.1l2.1,1.4l10.9,7c-3.4,6.3-7,12.4-10.8,18.4v0c0,0,0,0.1-0.2,0.2c-0.4,0.7-0.9,1.4-1.3,2.1c0,0-0.1-0.1-0.1-0.1
		c-4.5,6.5-18.4,26-29.3,38.8c0,0,0,0,0,0c-0.3,0.4-0.7,0.7-1,1.1c-0.1,0.2-0.3,0.3-0.4,0.5c-1.6,1.8-3.2,3.6-4.9,5.3l0,0
		c-57.6,61.3-139.3,99.6-229.8,99.6c-173.9,0-315.4-141.5-315.4-315.4c0-173.9,141.5-315.4,315.4-315.4
		c93.9,0,178.3,41.2,236.1,106.5c-4.8,6.8-9.4,13.8-13.8,20.9l-9.5-7.3l-0.5,4.2l-3.6,27.5l-5.5,41.9l45.4-18.9l15.2-6.3l7.7-3.2
		l0.1,0l-0.3-0.2l-12.3-9.4c1-1.8,2.1-3.6,3.2-5.3c0,0,0,0,0,0c0.7-1.8,1.6-3.6,2.7-5.6c6.8-12.4,19.9-27.7,29.6-38.3
		c0,0,0.1,0.1,0.1,0.2c3.2-3.6,6.5-7.2,9.9-10.7c0.2-0.1,0.3-0.3,0.4-0.4l1.3-1.3c57.2-58,136.7-94,224.4-94
		c173.9,0,315.4,141.5,315.4,315.4C1330.8,923.9,1189.4,1065.4,1015.5,1065.4z"/>
	<g>
		<g>
			<path class="st0" d="M859,748.7c-1.8-6.3-4.5-11.9-7.9-16.9c-3.4-5-7.4-9.3-12-12.9c-4.6-3.6-9.8-6.4-15.7-8.3
				c-5.8-2-11.9-2.9-18.3-2.9c-15.8,0-28.2,5.3-37.1,15.9h-0.6v-73.8h-26.9v124.9h26.2c-0.2-1.7-0.3-3.4-0.4-5.2c0-0.2,0-0.4,0-0.6
				c0-4.1,0.5-8.1,1.6-11.8c1.1-3.7,2.6-7.1,4.6-10.1c2-3,4.4-5.6,7.1-7.8c2.7-2.2,5.9-3.9,9.5-5.1c3.6-1.2,7.3-1.8,11.3-1.8
				c9.6,0,17.7,3.3,24.1,10c6.5,6.7,9.7,15.6,9.7,26.6c0,10.4-3.1,18.9-9.4,25.5c-6.3,6.6-14.4,9.9-24.3,9.9c-2.9,0-5.6-0.3-8.3-0.9
				v24c3.9,0.9,8,1.3,12.5,1.3c8,0,15.6-1.4,22.6-4.3c7-2.9,13-6.9,18-12c5-5.2,9-11.5,11.9-19c2.9-7.5,4.3-15.7,4.3-24.6
				C861.8,761.6,860.9,755,859,748.7z"/>
			<path class="st0" d="M988,709.4l-64.4,164.8h-28.3l21.1-54.1l-47.7-110.7H897l32.4,79.1h0.2l30.2-79.1H988z"/>
			<path class="st0" d="M1021,818.7c-5.8-6.6-8.6-16.3-8.6-29.1v-57.3h-14.3v-22.9h14.3v-39l26.9-2.9v41.9h34.5v22.9h-34.5v54.8
				c0,5.9,0.9,10.1,2.8,12.6c1.8,2.5,4.7,3.8,8.5,3.8c5.2,0,11-1.7,17.4-5l7,23.2c-4.2,2.3-8.5,4-12.9,5.2c-4.3,1.2-10,1.8-17,1.8
				C1034.8,828.6,1026.8,825.3,1021,818.7z"/>
			<path class="st0" d="M1198.8,777.4h-85.5c1.7,8.3,5.6,14.8,11.6,19.6c6,4.8,13.3,7.2,21.9,7.2c12.1,0,21.9-4.6,29.2-13.9
				l18.8,16.1c-5.3,6.8-12.1,12.2-20.5,16.2c-8.3,4-18,6-28.9,6c-11.3,0-21.6-2.5-30.6-7.4c-9.1-4.9-16.2-12-21.5-21.3
				c-5.2-9.3-7.9-19.9-7.9-31.9c0-8.8,1.4-17,4.3-24.5c2.9-7.5,6.9-13.9,12-19.1c5.1-5.2,11.2-9.3,18.2-12.3
				c7-2.9,14.6-4.4,22.7-4.4c11.3,0,21.4,2.5,30.1,7.6c8.7,5.1,15.3,12.1,20,21s6.9,19.1,6.9,30.4
				C1199.5,771,1199.3,774.6,1198.8,777.4z M1124.7,738.3c-5.4,4.1-9,9.9-10.9,17.4h58.7c-1.2-4.8-3-8.9-5.5-12.4
				c-2.5-3.5-5.7-6.2-9.6-8.2c-4-2-8.4-3-13.4-3C1136.6,732.1,1130.1,734.1,1124.7,738.3z"/>
		</g>
		<g>
			<path class="st0" d="M331.3,732.3h-13.1v-22.9h13.1V688c0-13.1,3-23,9.1-29.9c6.1-6.8,14.9-10.3,26.4-10.3
				c11,0,20.8,2.7,29.5,8.1l-6,22.8c-8.4-4-14.9-6-19.6-6c-2.7,0-5,0.6-6.8,1.9c-1.8,1.3-3.2,3.2-4.2,5.9c-1,2.7-1.5,6.2-1.5,10.4
				v18.5h28.9v22.9h-28.9v94.4h-26.9V732.3z"/>
			<path class="st0" d="M411,649.7h26.9v177H411V649.7z"/>
			<path class="st0" d="M579.6,709.4v117.3h-26.9v-15.3h-0.4c-4.6,5.6-10.1,9.8-16.3,12.7c-6.3,2.9-12.9,4.4-19.8,4.4
				c-6.7,0-12.6-0.9-17.8-2.6c-5.2-1.8-9.8-4.5-13.7-8.2c-4-3.7-7-8.6-9.1-14.8c-2.1-6.2-3.2-13.6-3.2-22.1v-71.4h26.9v64.1
				c0,5.9,0.5,10.8,1.4,14.7c0.9,3.9,2.3,7,4.3,9.4c2,2.3,4.3,4,7.2,5c2.8,1,6.3,1.5,10.4,1.5c4,0,7.8-0.8,11.4-2.5
				c3.6-1.7,6.8-4.1,9.6-7.2c2.8-3.1,5-7.2,6.7-12.2c1.6-5,2.5-10.5,2.5-16.6v-56.1H579.6z"/>
			<path class="st0" d="M659.5,789.7H659l-26.8,37h-29.7l41.2-59.7l-41-57.5h31.1l24.9,36.9h0.6l25.1-36.9h30.9l-40.7,57.4
				l41.4,59.9h-29.9L659.5,789.7z"/>
		</g>
	</g>
	<rect x="739.9" y="800.1" class="st1" width="27.1" height="27.1"/>
	<g>
		<path class="st0" d="M334,845.7h6.1c1.6,0,3,0.1,4.1,0.4c1.1,0.3,2.2,0.9,3.1,1.7c2.4,2.1,3.6,5.2,3.6,9.5c0,1.4-0.1,2.7-0.4,3.8
			c-0.2,1.2-0.6,2.2-1.1,3.1c-0.5,0.9-1.2,1.8-2,2.5c-0.6,0.6-1.3,1-2,1.3c-0.7,0.3-1.5,0.6-2.4,0.7c-0.9,0.1-1.8,0.2-2.9,0.2h-6.1
			c-0.9,0-1.5-0.1-1.9-0.4c-0.4-0.3-0.7-0.6-0.8-1.1c-0.1-0.5-0.2-1.1-0.2-1.8v-17c0-1,0.2-1.8,0.7-2.2
			C332.3,845.9,333,845.7,334,845.7z M335.9,849.4v15.8h3.6c0.8,0,1.4,0,1.8-0.1s0.9-0.1,1.4-0.3c0.5-0.2,0.9-0.4,1.2-0.7
			c1.6-1.3,2.4-3.6,2.4-6.9c0-2.3-0.3-4-1-5.2c-0.7-1.1-1.5-1.9-2.6-2.2c-1-0.3-2.2-0.5-3.7-0.5H335.9z"/>
		<path class="st0" d="M359.7,849.7c-0.6,0-1.1-0.2-1.5-0.6c-0.4-0.4-0.6-0.9-0.6-1.6c0-0.6,0.2-1.1,0.7-1.5
			c0.4-0.4,0.9-0.6,1.5-0.6c0.6,0,1.1,0.2,1.5,0.5c0.4,0.4,0.7,0.9,0.7,1.6c0,0.7-0.2,1.2-0.6,1.6
			C360.8,849.5,360.3,849.7,359.7,849.7z M361.9,854.2v12.5c0,0.9-0.2,1.5-0.6,2c-0.4,0.4-0.9,0.7-1.6,0.7c-0.6,0-1.1-0.2-1.5-0.7
			c-0.4-0.5-0.6-1.1-0.6-2v-12.4c0-0.9,0.2-1.5,0.6-1.9c0.4-0.4,0.9-0.7,1.5-0.7c0.6,0,1.2,0.2,1.6,0.7
			C361.6,852.8,361.9,853.4,361.9,854.2z"/>
		<path class="st0" d="M384.9,854.9v12.6c0,1.4-0.2,2.7-0.5,3.7c-0.3,1-0.8,1.9-1.5,2.6c-0.7,0.7-1.6,1.2-2.7,1.5
			c-1.1,0.3-2.5,0.5-4.1,0.5c-1.5,0-2.8-0.2-4-0.6c-1.2-0.4-2.1-1-2.7-1.6c-0.6-0.7-1-1.3-1-2c0-0.5,0.2-1,0.5-1.3
			c0.4-0.3,0.8-0.5,1.3-0.5c0.6,0,1.2,0.3,1.7,0.8c0.2,0.3,0.5,0.6,0.7,0.9c0.2,0.3,0.5,0.5,0.8,0.7c0.3,0.2,0.7,0.4,1.1,0.5
			c0.4,0.1,0.9,0.1,1.5,0.1c1.1,0,2-0.2,2.6-0.5c0.6-0.3,1.1-0.7,1.3-1.3c0.2-0.6,0.4-1.2,0.4-1.8s0.1-1.7,0.1-3.1
			c-0.7,0.9-1.4,1.6-2.3,2.1c-0.9,0.5-1.9,0.7-3.1,0.7c-1.4,0-2.7-0.4-3.8-1.1c-1.1-0.7-1.9-1.8-2.5-3.1c-0.6-1.3-0.9-2.9-0.9-4.6
			c0-1.3,0.2-2.5,0.5-3.5c0.4-1,0.9-1.9,1.5-2.6c0.7-0.7,1.4-1.3,2.3-1.6c0.9-0.4,1.8-0.5,2.8-0.5c1.2,0,2.3,0.2,3.2,0.7
			c0.9,0.5,1.7,1.2,2.5,2.2v-0.6c0-0.8,0.2-1.3,0.6-1.7s0.8-0.6,1.4-0.6c0.8,0,1.4,0.3,1.7,0.8C384.8,853.1,384.9,853.9,384.9,854.9
			z M372.4,860.4c0,1.8,0.4,3.1,1.1,4c0.8,0.9,1.8,1.3,3,1.3c0.7,0,1.4-0.2,2-0.6c0.6-0.4,1.2-1,1.6-1.7c0.4-0.8,0.6-1.7,0.6-2.8
			c0-1.8-0.4-3.1-1.2-4.1c-0.8-1-1.8-1.5-3.1-1.5c-1.2,0-2.2,0.5-3,1.4C372.7,857.3,372.4,858.6,372.4,860.4z"/>
		<path class="st0" d="M394.1,849.7c-0.6,0-1.1-0.2-1.5-0.6c-0.4-0.4-0.6-0.9-0.6-1.6c0-0.6,0.2-1.1,0.7-1.5
			c0.4-0.4,0.9-0.6,1.5-0.6c0.6,0,1.1,0.2,1.5,0.5c0.4,0.4,0.7,0.9,0.7,1.6c0,0.7-0.2,1.2-0.6,1.6
			C395.2,849.5,394.7,849.7,394.1,849.7z M396.3,854.2v12.5c0,0.9-0.2,1.5-0.6,2c-0.4,0.4-0.9,0.7-1.6,0.7c-0.6,0-1.1-0.2-1.5-0.7
			c-0.4-0.5-0.6-1.1-0.6-2v-12.4c0-0.9,0.2-1.5,0.6-1.9c0.4-0.4,0.9-0.7,1.5-0.7c0.6,0,1.2,0.2,1.6,0.7
			C396.1,852.8,396.3,853.4,396.3,854.2z"/>
		<path class="st0" d="M403.7,852.1h0.5v-2.6c0-0.7,0-1.2,0.1-1.6c0-0.4,0.1-0.7,0.3-1c0.2-0.3,0.4-0.5,0.7-0.7
			c0.3-0.2,0.7-0.3,1.1-0.3c0.5,0,1,0.2,1.5,0.6c0.3,0.3,0.5,0.6,0.6,1c0.1,0.4,0.1,1,0.1,1.7v3h1.6c0.6,0,1.1,0.1,1.4,0.4
			s0.5,0.7,0.5,1.1c0,0.6-0.2,1-0.7,1.2c-0.5,0.2-1.1,0.3-2,0.3h-0.8v8c0,0.7,0,1.2,0.1,1.6c0,0.4,0.2,0.7,0.4,0.9
			c0.2,0.2,0.5,0.3,1,0.3c0.3,0,0.6,0,1-0.1c0.4-0.1,0.8-0.1,1-0.1c0.3,0,0.7,0.1,0.9,0.4c0.3,0.3,0.4,0.6,0.4,1
			c0,0.7-0.4,1.2-1.1,1.6c-0.8,0.4-1.9,0.6-3.3,0.6c-1.4,0-2.4-0.2-3.1-0.7c-0.7-0.5-1.2-1.1-1.4-1.9c-0.2-0.8-0.3-1.9-0.3-3.2v-8.3
			h-0.6c-0.6,0-1.1-0.1-1.4-0.4c-0.3-0.3-0.5-0.7-0.5-1.1c0-0.5,0.2-0.8,0.5-1.1C402.5,852.2,403,852.1,403.7,852.1z"/>
		<path class="st0" d="M419.8,849.7c-0.6,0-1.1-0.2-1.5-0.6c-0.4-0.4-0.6-0.9-0.6-1.6c0-0.6,0.2-1.1,0.7-1.5
			c0.4-0.4,0.9-0.6,1.5-0.6c0.6,0,1.1,0.2,1.5,0.5c0.4,0.4,0.7,0.9,0.7,1.6c0,0.7-0.2,1.2-0.6,1.6
			C420.9,849.5,420.3,849.7,419.8,849.7z M421.9,854.2v12.5c0,0.9-0.2,1.5-0.6,2c-0.4,0.4-0.9,0.7-1.6,0.7c-0.6,0-1.1-0.2-1.5-0.7
			c-0.4-0.5-0.6-1.1-0.6-2v-12.4c0-0.9,0.2-1.5,0.6-1.9c0.4-0.4,0.9-0.7,1.5-0.7c0.6,0,1.2,0.2,1.6,0.7
			C421.7,852.8,421.9,853.4,421.9,854.2z"/>
		<path class="st0" d="M440.8,856.7l-7.9,8.9h8.5c0.7,0,1.2,0.2,1.6,0.5c0.3,0.3,0.5,0.7,0.5,1.2c0,0.5-0.2,0.9-0.5,1.2
			s-0.9,0.5-1.6,0.5h-11.7c-0.8,0-1.4-0.2-1.8-0.5c-0.4-0.4-0.6-0.9-0.6-1.5c0-0.4,0.1-0.7,0.4-1.1c0.3-0.4,0.9-1.1,1.8-2.1
			c1-1.1,1.8-2,2.6-2.9c0.8-0.9,1.5-1.7,2.2-2.4c0.7-0.7,1.2-1.4,1.7-1.9c0.4-0.5,0.8-1,1.1-1.3h-6.4c-0.9,0-1.6-0.1-2-0.2
			c-0.5-0.2-0.7-0.6-0.7-1.3c0-0.5,0.2-0.9,0.5-1.2c0.3-0.3,0.8-0.4,1.5-0.4h9.9c0.9,0,1.6,0.1,2.1,0.4c0.5,0.3,0.7,0.8,0.7,1.5
			c0,0.2,0,0.5-0.1,0.7c-0.1,0.2-0.2,0.5-0.3,0.6c-0.1,0.2-0.3,0.4-0.5,0.6C441.4,856.1,441.1,856.4,440.8,856.7z"/>
		<path class="st0" d="M450.8,849.7c-0.6,0-1.1-0.2-1.5-0.6c-0.4-0.4-0.6-0.9-0.6-1.6c0-0.6,0.2-1.1,0.7-1.5
			c0.4-0.4,0.9-0.6,1.5-0.6c0.6,0,1.1,0.2,1.5,0.5c0.4,0.4,0.7,0.9,0.7,1.6c0,0.7-0.2,1.2-0.6,1.6
			C451.9,849.5,451.4,849.7,450.8,849.7z M453,854.2v12.5c0,0.9-0.2,1.5-0.6,2c-0.4,0.4-0.9,0.7-1.6,0.7c-0.6,0-1.1-0.2-1.5-0.7
			c-0.4-0.5-0.6-1.1-0.6-2v-12.4c0-0.9,0.2-1.5,0.6-1.9c0.4-0.4,0.9-0.7,1.5-0.7c0.6,0,1.2,0.2,1.6,0.7
			C452.8,852.8,453,853.4,453,854.2z"/>
		<path class="st0" d="M464,854.1v0.5c0.8-1,1.6-1.7,2.5-2.2c0.9-0.5,1.9-0.7,3.1-0.7c1.1,0,2.2,0.2,3.1,0.7c0.9,0.5,1.6,1.2,2,2.1
			c0.3,0.5,0.5,1.1,0.6,1.7c0.1,0.6,0.1,1.4,0.1,2.3v8.1c0,0.9-0.2,1.5-0.6,2c-0.4,0.4-0.9,0.7-1.5,0.7c-0.6,0-1.2-0.2-1.6-0.7
			c-0.4-0.5-0.6-1.1-0.6-2v-7.2c0-1.4-0.2-2.5-0.6-3.3s-1.2-1.1-2.4-1.1c-0.8,0-1.5,0.2-2.1,0.7c-0.6,0.5-1.1,1.1-1.4,1.9
			c-0.2,0.6-0.3,1.8-0.3,3.6v5.4c0,0.9-0.2,1.5-0.6,2c-0.4,0.4-0.9,0.7-1.6,0.7c-0.6,0-1.1-0.2-1.5-0.7c-0.4-0.5-0.6-1.1-0.6-2
			v-12.5c0-0.8,0.2-1.4,0.5-1.8c0.4-0.4,0.9-0.6,1.5-0.6c0.4,0,0.7,0.1,1,0.3s0.6,0.4,0.7,0.8C463.9,853.1,464,853.6,464,854.1z"/>
		<path class="st0" d="M498.3,854.9v12.6c0,1.4-0.2,2.7-0.5,3.7c-0.3,1-0.8,1.9-1.5,2.6c-0.7,0.7-1.6,1.2-2.7,1.5
			c-1.1,0.3-2.5,0.5-4.1,0.5c-1.5,0-2.8-0.2-4-0.6c-1.2-0.4-2.1-1-2.7-1.6c-0.6-0.7-1-1.3-1-2c0-0.5,0.2-1,0.5-1.3
			c0.4-0.3,0.8-0.5,1.3-0.5c0.6,0,1.2,0.3,1.7,0.8c0.2,0.3,0.5,0.6,0.7,0.9c0.2,0.3,0.5,0.5,0.8,0.7c0.3,0.2,0.7,0.4,1.1,0.5
			c0.4,0.1,0.9,0.1,1.5,0.1c1.1,0,2-0.2,2.6-0.5c0.6-0.3,1.1-0.7,1.3-1.3c0.2-0.6,0.4-1.2,0.4-1.8s0.1-1.7,0.1-3.1
			c-0.7,0.9-1.4,1.6-2.3,2.1c-0.9,0.5-1.9,0.7-3.1,0.7c-1.4,0-2.7-0.4-3.8-1.1c-1.1-0.7-1.9-1.8-2.5-3.1c-0.6-1.3-0.9-2.9-0.9-4.6
			c0-1.3,0.2-2.5,0.5-3.5c0.4-1,0.9-1.9,1.5-2.6c0.7-0.7,1.4-1.3,2.3-1.6c0.9-0.4,1.8-0.5,2.8-0.5c1.2,0,2.3,0.2,3.2,0.7
			c0.9,0.5,1.7,1.2,2.5,2.2v-0.6c0-0.8,0.2-1.3,0.6-1.7s0.8-0.6,1.4-0.6c0.8,0,1.4,0.3,1.7,0.8C498.2,853.1,498.3,853.9,498.3,854.9
			z M485.8,860.4c0,1.8,0.4,3.1,1.1,4c0.8,0.9,1.8,1.3,3,1.3c0.7,0,1.4-0.2,2-0.6c0.6-0.4,1.2-1,1.6-1.7c0.4-0.8,0.6-1.7,0.6-2.8
			c0-1.8-0.4-3.1-1.2-4.1c-0.8-1-1.8-1.5-3.1-1.5c-1.2,0-2.2,0.5-3,1.4C486.1,857.3,485.8,858.6,485.8,860.4z"/>
		<path class="st0" d="M526.4,868.9h-7.1c-1,0-1.8-0.2-2.2-0.7c-0.4-0.5-0.7-1.2-0.7-2.2v-17.5c0-1,0.2-1.8,0.7-2.2
			c0.4-0.4,1.2-0.7,2.2-0.7h7.5c1.1,0,2.1,0.1,2.9,0.2c0.8,0.1,1.5,0.4,2.2,0.8c0.5,0.3,1,0.7,1.5,1.2c0.4,0.5,0.7,1.1,1,1.7
			c0.2,0.6,0.3,1.3,0.3,1.9c0,2.3-1.2,4-3.5,5.1c3.1,1,4.6,2.9,4.6,5.7c0,1.3-0.3,2.5-1,3.5c-0.7,1-1.6,1.8-2.7,2.3
			c-0.7,0.3-1.5,0.5-2.4,0.6C528.7,868.9,527.6,868.9,526.4,868.9z M521.1,849.2v6h4.3c1.2,0,2.1-0.1,2.7-0.3
			c0.6-0.2,1.1-0.6,1.5-1.3c0.3-0.4,0.4-0.9,0.4-1.5c0-1.2-0.4-2-1.3-2.3c-0.8-0.4-2.1-0.6-3.8-0.6H521.1z M526,858.6h-4.9v6.8h5.1
			c3.2,0,4.8-1.1,4.8-3.4c0-1.2-0.4-2-1.2-2.6C528.9,858.9,527.6,858.6,526,858.6z"/>
		<path class="st0" d="M553.4,866.9v-0.6c-0.5,0.7-1.1,1.2-1.6,1.6c-0.6,0.4-1.2,0.8-1.9,1c-0.7,0.2-1.4,0.3-2.3,0.3
			c-1,0-2-0.2-2.8-0.7s-1.5-1-1.9-1.8c-0.5-0.9-0.8-2.2-0.8-4v-8.6c0-0.9,0.2-1.5,0.6-1.9c0.4-0.4,0.9-0.6,1.6-0.6
			c0.7,0,1.2,0.2,1.6,0.7c0.4,0.4,0.6,1.1,0.6,1.9v6.9c0,1,0.1,1.8,0.3,2.5c0.2,0.7,0.5,1.2,0.9,1.6c0.4,0.4,1,0.6,1.8,0.6
			c0.7,0,1.4-0.2,2.1-0.7c0.6-0.4,1.1-1,1.4-1.7c0.2-0.6,0.4-2,0.4-4v-5.3c0-0.9,0.2-1.5,0.6-1.9c0.4-0.4,0.9-0.7,1.6-0.7
			c0.6,0,1.2,0.2,1.6,0.6c0.4,0.4,0.6,1.1,0.6,1.9v12.5c0,0.8-0.2,1.4-0.6,1.9c-0.4,0.4-0.9,0.6-1.5,0.6c-0.6,0-1.1-0.2-1.5-0.6
			C553.6,868.2,553.4,867.6,553.4,866.9z"/>
		<path class="st0" d="M578.4,863.7c0,1.2-0.3,2.2-0.9,3.1c-0.6,0.9-1.4,1.5-2.6,1.9c-1.1,0.4-2.5,0.7-4.1,0.7c-1.6,0-2.9-0.2-4-0.7
			c-1.1-0.5-1.9-1.1-2.5-1.8c-0.5-0.7-0.8-1.4-0.8-2.1c0-0.5,0.2-0.9,0.5-1.2c0.3-0.3,0.8-0.5,1.3-0.5c0.5,0,0.8,0.1,1,0.3
			c0.2,0.2,0.5,0.5,0.7,0.9c0.4,0.8,1,1.3,1.6,1.7c0.6,0.4,1.5,0.6,2.5,0.6c0.9,0,1.6-0.2,2.1-0.6c0.6-0.4,0.8-0.8,0.8-1.3
			c0-0.8-0.3-1.3-0.9-1.7c-0.6-0.3-1.5-0.7-2.8-1c-1.5-0.4-2.7-0.8-3.6-1.2c-0.9-0.4-1.7-0.9-2.2-1.6c-0.6-0.7-0.8-1.5-0.8-2.5
			c0-0.9,0.3-1.7,0.8-2.5c0.5-0.8,1.3-1.4,2.3-1.8c1-0.5,2.2-0.7,3.7-0.7c1.1,0,2.1,0.1,3,0.3s1.6,0.5,2.2,0.9
			c0.6,0.4,1.1,0.8,1.4,1.3c0.3,0.5,0.5,0.9,0.5,1.4c0,0.5-0.2,0.9-0.5,1.2c-0.3,0.3-0.8,0.5-1.4,0.5c-0.4,0-0.8-0.1-1.1-0.4
			c-0.3-0.3-0.7-0.6-1.1-1.1c-0.3-0.4-0.7-0.8-1.2-1c-0.4-0.3-1-0.4-1.8-0.4c-0.8,0-1.4,0.2-2,0.5c-0.5,0.3-0.8,0.7-0.8,1.2
			c0,0.5,0.2,0.8,0.6,1.1c0.4,0.3,0.9,0.5,1.5,0.7c0.6,0.2,1.5,0.4,2.7,0.7c1.3,0.3,2.4,0.7,3.3,1.2c0.9,0.5,1.5,1,1.9,1.6
			C578.2,862.2,578.4,862.9,578.4,863.7z"/>
		<path class="st0" d="M586.9,849.7c-0.6,0-1.1-0.2-1.5-0.6c-0.4-0.4-0.6-0.9-0.6-1.6c0-0.6,0.2-1.1,0.7-1.5
			c0.4-0.4,0.9-0.6,1.5-0.6c0.6,0,1.1,0.2,1.5,0.5c0.4,0.4,0.7,0.9,0.7,1.6c0,0.7-0.2,1.2-0.6,1.6
			C588,849.5,587.5,849.7,586.9,849.7z M589,854.2v12.5c0,0.9-0.2,1.5-0.6,2c-0.4,0.4-0.9,0.7-1.6,0.7c-0.6,0-1.1-0.2-1.5-0.7
			c-0.4-0.5-0.6-1.1-0.6-2v-12.4c0-0.9,0.2-1.5,0.6-1.9c0.4-0.4,0.9-0.7,1.5-0.7c0.6,0,1.2,0.2,1.6,0.7
			C588.8,852.8,589,853.4,589,854.2z"/>
		<path class="st0" d="M600.1,854.1v0.5c0.8-1,1.6-1.7,2.5-2.2c0.9-0.5,1.9-0.7,3.1-0.7c1.1,0,2.2,0.2,3.1,0.7
			c0.9,0.5,1.6,1.2,2,2.1c0.3,0.5,0.5,1.1,0.6,1.7c0.1,0.6,0.1,1.4,0.1,2.3v8.1c0,0.9-0.2,1.5-0.6,2c-0.4,0.4-0.9,0.7-1.5,0.7
			c-0.6,0-1.2-0.2-1.6-0.7c-0.4-0.5-0.6-1.1-0.6-2v-7.2c0-1.4-0.2-2.5-0.6-3.3s-1.2-1.1-2.4-1.1c-0.8,0-1.5,0.2-2.1,0.7
			c-0.6,0.5-1.1,1.1-1.4,1.9c-0.2,0.6-0.3,1.8-0.3,3.6v5.4c0,0.9-0.2,1.5-0.6,2c-0.4,0.4-0.9,0.7-1.6,0.7c-0.6,0-1.1-0.2-1.5-0.7
			c-0.4-0.5-0.6-1.1-0.6-2v-12.5c0-0.8,0.2-1.4,0.5-1.8c0.4-0.4,0.9-0.6,1.5-0.6c0.4,0,0.7,0.1,1,0.3s0.6,0.4,0.7,0.8
			C600,853.1,600.1,853.6,600.1,854.1z"/>
		<path class="st0" d="M630.5,861.6h-8.5c0,1,0.2,1.8,0.6,2.6c0.4,0.7,0.9,1.3,1.5,1.7c0.6,0.4,1.3,0.6,2.1,0.6c0.5,0,1-0.1,1.4-0.2
			c0.4-0.1,0.8-0.3,1.2-0.6c0.4-0.3,0.8-0.5,1.1-0.8c0.3-0.3,0.8-0.7,1.3-1.2c0.2-0.2,0.5-0.3,1-0.3c0.4,0,0.8,0.1,1.1,0.4
			c0.3,0.2,0.4,0.6,0.4,1c0,0.4-0.2,0.8-0.5,1.4c-0.3,0.5-0.8,1-1.4,1.5c-0.6,0.5-1.4,0.9-2.3,1.2c-0.9,0.3-2,0.5-3.2,0.5
			c-2.8,0-4.9-0.8-6.5-2.4c-1.5-1.6-2.3-3.7-2.3-6.5c0-1.3,0.2-2.5,0.6-3.6c0.4-1.1,0.9-2,1.7-2.8c0.7-0.8,1.6-1.4,2.7-1.8
			s2.3-0.6,3.6-0.6c1.7,0,3.1,0.4,4.4,1.1c1.2,0.7,2.1,1.6,2.7,2.8c0.6,1.1,0.9,2.3,0.9,3.5c0,1.1-0.3,1.8-0.9,2.1
			C632.5,861.4,631.7,861.6,630.5,861.6z M622.1,859.1h7.9c-0.1-1.5-0.5-2.6-1.2-3.3c-0.7-0.7-1.6-1.1-2.7-1.1c-1.1,0-2,0.4-2.7,1.1
			C622.6,856.6,622.2,857.7,622.1,859.1z"/>
		<path class="st0" d="M654.4,863.7c0,1.2-0.3,2.2-0.9,3.1c-0.6,0.9-1.4,1.5-2.6,1.9c-1.1,0.4-2.5,0.7-4.1,0.7c-1.6,0-2.9-0.2-4-0.7
			c-1.1-0.5-1.9-1.1-2.5-1.8s-0.8-1.4-0.8-2.1c0-0.5,0.2-0.9,0.5-1.2c0.3-0.3,0.8-0.5,1.3-0.5c0.5,0,0.8,0.1,1,0.3
			c0.2,0.2,0.5,0.5,0.7,0.9c0.4,0.8,1,1.3,1.6,1.7c0.6,0.4,1.5,0.6,2.5,0.6c0.9,0,1.6-0.2,2.1-0.6c0.6-0.4,0.8-0.8,0.8-1.3
			c0-0.8-0.3-1.3-0.9-1.7c-0.6-0.3-1.5-0.7-2.8-1c-1.5-0.4-2.7-0.8-3.6-1.2c-0.9-0.4-1.7-0.9-2.2-1.6c-0.6-0.7-0.8-1.5-0.8-2.5
			c0-0.9,0.3-1.7,0.8-2.5c0.5-0.8,1.3-1.4,2.3-1.8c1-0.5,2.2-0.7,3.7-0.7c1.1,0,2.1,0.1,3,0.3c0.9,0.2,1.6,0.5,2.2,0.9
			c0.6,0.4,1.1,0.8,1.4,1.3c0.3,0.5,0.5,0.9,0.5,1.4c0,0.5-0.2,0.9-0.5,1.2c-0.3,0.3-0.8,0.5-1.4,0.5c-0.4,0-0.8-0.1-1.1-0.4
			c-0.3-0.3-0.7-0.6-1.1-1.1c-0.3-0.4-0.7-0.8-1.2-1c-0.4-0.3-1-0.4-1.8-0.4c-0.8,0-1.4,0.2-2,0.5c-0.5,0.3-0.8,0.7-0.8,1.2
			c0,0.5,0.2,0.8,0.6,1.1c0.4,0.3,0.9,0.5,1.5,0.7c0.6,0.2,1.5,0.4,2.7,0.7c1.3,0.3,2.4,0.7,3.3,1.2c0.9,0.5,1.5,1,1.9,1.6
			C654.1,862.2,654.4,862.9,654.4,863.7z"/>
		<path class="st0" d="M674.6,863.7c0,1.2-0.3,2.2-0.9,3.1c-0.6,0.9-1.4,1.5-2.6,1.9c-1.1,0.4-2.5,0.7-4.1,0.7c-1.6,0-2.9-0.2-4-0.7
			c-1.1-0.5-1.9-1.1-2.5-1.8s-0.8-1.4-0.8-2.1c0-0.5,0.2-0.9,0.5-1.2c0.3-0.3,0.8-0.5,1.3-0.5c0.5,0,0.8,0.1,1,0.3
			c0.2,0.2,0.5,0.5,0.7,0.9c0.4,0.8,1,1.3,1.6,1.7c0.6,0.4,1.5,0.6,2.5,0.6c0.9,0,1.6-0.2,2.1-0.6c0.6-0.4,0.8-0.8,0.8-1.3
			c0-0.8-0.3-1.3-0.9-1.7c-0.6-0.3-1.5-0.7-2.8-1c-1.5-0.4-2.7-0.8-3.6-1.2c-0.9-0.4-1.7-0.9-2.2-1.6c-0.6-0.7-0.8-1.5-0.8-2.5
			c0-0.9,0.3-1.7,0.8-2.5c0.5-0.8,1.3-1.4,2.3-1.8c1-0.5,2.2-0.7,3.7-0.7c1.1,0,2.1,0.1,3,0.3c0.9,0.2,1.6,0.5,2.2,0.9
			c0.6,0.4,1.1,0.8,1.4,1.3c0.3,0.5,0.5,0.9,0.5,1.4c0,0.5-0.2,0.9-0.5,1.2c-0.3,0.3-0.8,0.5-1.4,0.5c-0.4,0-0.8-0.1-1.1-0.4
			c-0.3-0.3-0.7-0.6-1.1-1.1c-0.3-0.4-0.7-0.8-1.2-1c-0.4-0.3-1-0.4-1.8-0.4c-0.8,0-1.4,0.2-2,0.5c-0.5,0.3-0.8,0.7-0.8,1.2
			c0,0.5,0.2,0.8,0.6,1.1c0.4,0.3,0.9,0.5,1.5,0.7c0.6,0.2,1.5,0.4,2.7,0.7c1.3,0.3,2.4,0.7,3.3,1.2c0.9,0.5,1.5,1,1.9,1.6
			C674.4,862.2,674.6,862.9,674.6,863.7z"/>
		<path class="st0" d="M693,861.6h-8.5c0,1,0.2,1.8,0.6,2.6c0.4,0.7,0.9,1.3,1.5,1.7c0.6,0.4,1.3,0.6,2.1,0.6c0.5,0,1-0.1,1.4-0.2
			c0.4-0.1,0.8-0.3,1.2-0.6c0.4-0.3,0.8-0.5,1.1-0.8c0.3-0.3,0.8-0.7,1.3-1.2c0.2-0.2,0.5-0.3,1-0.3c0.4,0,0.8,0.1,1.1,0.4
			c0.3,0.2,0.4,0.6,0.4,1c0,0.4-0.2,0.8-0.5,1.4c-0.3,0.5-0.8,1-1.4,1.5c-0.6,0.5-1.4,0.9-2.3,1.2c-0.9,0.3-2,0.5-3.2,0.5
			c-2.8,0-4.9-0.8-6.5-2.4c-1.5-1.6-2.3-3.7-2.3-6.5c0-1.3,0.2-2.5,0.6-3.6c0.4-1.1,0.9-2,1.7-2.8c0.7-0.8,1.6-1.4,2.7-1.8
			c1.1-0.4,2.3-0.6,3.6-0.6c1.7,0,3.1,0.4,4.4,1.1c1.2,0.7,2.1,1.6,2.7,2.8c0.6,1.1,0.9,2.3,0.9,3.5c0,1.1-0.3,1.8-0.9,2.1
			C695,861.4,694.2,861.6,693,861.6z M684.6,859.1h7.9c-0.1-1.5-0.5-2.6-1.2-3.3c-0.7-0.7-1.6-1.1-2.7-1.1c-1.1,0-2,0.4-2.7,1.1
			C685.1,856.6,684.7,857.7,684.6,859.1z"/>
		<path class="st0" d="M716.9,863.7c0,1.2-0.3,2.2-0.9,3.1c-0.6,0.9-1.4,1.5-2.6,1.9c-1.1,0.4-2.5,0.7-4.1,0.7c-1.6,0-2.9-0.2-4-0.7
			c-1.1-0.5-1.9-1.1-2.5-1.8c-0.5-0.7-0.8-1.4-0.8-2.1c0-0.5,0.2-0.9,0.5-1.2c0.3-0.3,0.8-0.5,1.3-0.5c0.5,0,0.8,0.1,1,0.3
			c0.2,0.2,0.5,0.5,0.7,0.9c0.4,0.8,1,1.3,1.6,1.7c0.6,0.4,1.5,0.6,2.5,0.6c0.9,0,1.6-0.2,2.1-0.6c0.6-0.4,0.8-0.8,0.8-1.3
			c0-0.8-0.3-1.3-0.9-1.7c-0.6-0.3-1.5-0.7-2.8-1c-1.5-0.4-2.7-0.8-3.6-1.2c-0.9-0.4-1.7-0.9-2.2-1.6c-0.6-0.7-0.8-1.5-0.8-2.5
			c0-0.9,0.3-1.7,0.8-2.5c0.5-0.8,1.3-1.4,2.3-1.8c1-0.5,2.2-0.7,3.7-0.7c1.1,0,2.1,0.1,3,0.3c0.9,0.2,1.6,0.5,2.2,0.9
			c0.6,0.4,1.1,0.8,1.4,1.3c0.3,0.5,0.5,0.9,0.5,1.4c0,0.5-0.2,0.9-0.5,1.2c-0.3,0.3-0.8,0.5-1.4,0.5c-0.4,0-0.8-0.1-1.1-0.4
			c-0.3-0.3-0.7-0.6-1.1-1.1c-0.3-0.4-0.7-0.8-1.2-1c-0.4-0.3-1-0.4-1.8-0.4c-0.8,0-1.4,0.2-2,0.5c-0.5,0.3-0.8,0.7-0.8,1.2
			c0,0.5,0.2,0.8,0.6,1.1c0.4,0.3,0.9,0.5,1.5,0.7c0.6,0.2,1.5,0.4,2.7,0.7c1.3,0.3,2.4,0.7,3.3,1.2c0.9,0.5,1.5,1,1.9,1.6
			C716.6,862.2,716.9,862.9,716.9,863.7z"/>
	</g>
</g>
</svg>
